<svg width="171" height="972" viewBox="0 0 171 972" fill="none" xmlns="http://www.w3.org/2000/svg">
<path d="M134 971.4L7.99999 971.4L7.99999 911.82C7.99999 897.9 10.58 885.66 15.74 875.1C20.9 864.54 28.16 856.32 37.52 850.44C46.88 844.44 58.04 841.44 71 841.44C83.84 841.44 95 844.44 104.48 850.44C113.84 856.32 121.1 864.54 126.26 875.1C131.42 885.66 134 897.9 134 911.82L134 971.4ZM105.56 935.76L105.56 913.26C105.56 906.06 104.24 899.82 101.6 894.54C98.84 889.14 94.88 884.94 89.72 881.94C84.44 878.94 78.2 877.44 71 877.44C63.68 877.44 57.44 878.94 52.28 881.94C47.12 884.94 43.22 889.14 40.58 894.54C37.82 899.82 36.44 906.06 36.44 913.26L36.44 935.76L105.56 935.76ZM134 777.329L115.82 777.329L111.32 779.669L77.84 779.669C72.44 779.669 68.3 781.349 65.42 784.709C62.42 787.949 60.92 793.169 60.92 800.369C60.92 805.049 61.7 809.789 63.26 814.589C64.7 819.389 66.74 823.469 69.38 826.829L46.16 838.349C42.56 832.829 39.8 826.229 37.88 818.549C35.84 810.749 34.82 803.009 34.82 795.329C34.82 779.489 38.48 767.249 45.8 758.609C53 749.849 64.34 745.469 79.82 745.469L134 745.469L134 777.329ZM135.62 806.129C135.62 813.929 134.3 820.529 131.66 825.929C129.02 831.329 125.42 835.469 120.86 838.349C116.3 841.109 111.2 842.489 105.56 842.489C99.56 842.489 94.4 840.989 90.08 837.989C85.64 834.869 82.28 830.129 80 823.769C77.6 817.409 76.4 809.189 76.4 799.109L76.4 776.069L94.22 776.069L94.22 794.429C94.22 799.949 95.12 803.849 96.92 806.129C98.72 808.289 101.12 809.369 104.12 809.369C107.12 809.369 109.52 808.229 111.32 805.949C113.12 803.669 114.02 800.549 114.02 796.589C114.02 792.869 113.12 789.509 111.32 786.509C109.4 783.389 106.52 781.109 102.68 779.669L115.28 774.989C122 776.789 127.1 780.329 130.58 785.609C133.94 790.769 135.62 797.609 135.62 806.129ZM34.82 609.402C34.82 601.842 36.38 595.122 39.5 589.242C42.5 583.242 47.18 578.562 53.54 575.202C59.9 571.722 68.12 569.982 78.2 569.982L134 569.982L134 604.182L83.78 604.182C76.82 604.182 71.78 605.502 68.66 608.142C65.42 610.782 63.8 614.382 63.8 618.942C63.8 622.182 64.58 625.122 66.14 627.762C67.7 630.402 70.1 632.442 73.34 633.882C76.46 635.322 80.54 636.042 85.58 636.042L134 636.042L134 670.242L83.78 670.242C76.82 670.242 71.78 671.562 68.66 674.202C65.42 676.722 63.8 680.322 63.8 685.002C63.8 688.362 64.58 691.362 66.14 694.002C67.7 696.522 70.1 698.562 73.34 700.122C76.46 701.562 80.54 702.282 85.58 702.282L134 702.282L134 736.482L36.44 736.482L36.44 703.902L63.62 703.902L55.88 710.382C48.92 706.782 43.7 701.862 40.22 695.622C36.62 689.382 34.82 682.422 34.82 674.742C34.82 665.982 37.1 658.302 41.66 651.702C46.1 644.982 53.06 640.482 62.54 638.202L60.2 649.362C52.28 645.882 46.1 640.662 41.66 633.702C37.1 626.622 34.82 618.522 34.82 609.402ZM135.62 525.536C135.62 533.816 134.66 541.916 132.74 549.836C130.82 557.636 128.42 563.936 125.54 568.736L102.14 558.476C104.9 553.916 107.12 548.576 108.8 542.456C110.36 536.336 111.14 530.336 111.14 524.456C111.14 518.696 110.54 514.736 109.34 512.576C108.14 510.296 106.52 509.156 104.48 509.156C102.56 509.156 101.18 510.236 100.34 512.396C99.38 514.436 98.66 517.196 98.18 520.676C97.7 524.036 97.16 527.756 96.56 531.836C95.96 535.916 95.18 540.056 94.22 544.256C93.14 548.336 91.58 552.116 89.54 555.596C87.38 558.956 84.5 561.656 80.9 563.696C77.3 565.736 72.74 566.756 67.22 566.756C60.98 566.756 55.46 564.956 50.66 561.356C45.74 557.636 41.9 552.236 39.14 545.156C36.26 538.076 34.82 529.436 34.82 519.236C34.82 512.396 35.54 505.496 36.98 498.536C38.3 491.456 40.34 485.516 43.1 480.716L66.32 490.976C63.56 495.776 61.7 500.576 60.74 505.376C59.66 510.176 59.12 514.736 59.12 519.056C59.12 524.816 59.78 528.896 61.1 531.296C62.42 533.576 64.04 534.716 65.96 534.716C67.88 534.716 69.38 533.696 70.46 531.656C71.42 529.616 72.2 526.916 72.8 523.556C73.28 520.076 73.82 516.296 74.42 512.216C74.9 508.136 75.68 504.056 76.76 499.976C77.84 495.776 79.46 491.996 81.62 488.636C83.66 485.156 86.48 482.396 90.08 480.356C93.56 478.316 98.06 477.296 103.58 477.296C109.58 477.296 114.98 479.156 119.78 482.876C124.58 486.476 128.42 491.876 131.3 499.076C134.18 506.156 135.62 514.976 135.62 525.536ZM136.52 370.755C136.52 380.715 134.96 389.955 131.84 398.475C128.6 406.995 124.04 414.375 118.16 420.615C112.28 426.735 105.38 431.535 97.46 435.015C89.42 438.495 80.6 440.235 71 440.235C61.4 440.235 52.64 438.495 44.72 435.015C36.68 431.535 29.72 426.675 23.84 420.435C17.96 414.195 13.46 406.815 10.34 398.295C7.09997 389.655 5.47997 380.235 5.47996 370.035C5.47996 358.155 7.45996 347.535 11.42 338.175C15.38 328.815 21.08 321.075 28.52 314.955L49.04 337.635C44.36 341.955 40.88 346.635 38.6 351.675C36.2 356.595 35 362.115 35 368.235C35 373.635 35.84 378.555 37.52 382.995C39.2 387.435 41.66 391.215 44.9 394.335C48.02 397.455 51.8 399.915 56.24 401.715C60.56 403.395 65.48 404.235 71 404.235C76.28 404.235 81.14 403.395 85.58 401.715C90.02 399.915 93.86 397.455 97.1 394.335C100.22 391.215 102.68 387.495 104.48 383.175C106.16 378.735 107 373.875 107 368.595C107 363.315 106.16 358.155 104.48 353.115C102.68 348.075 99.68 342.975 95.48 337.815L120.5 317.835C125.66 325.035 129.62 333.375 132.38 342.855C135.14 352.335 136.52 361.635 136.52 370.755ZM115.82 349.335L68.3 349.335L68.3 317.835L120.5 317.835L115.82 349.335ZM134 249.88L115.82 249.88L111.32 252.22L77.84 252.22C72.44 252.22 68.3 253.9 65.42 257.26C62.42 260.5 60.92 265.72 60.92 272.92C60.92 277.6 61.7 282.34 63.26 287.14C64.7 291.94 66.74 296.02 69.38 299.38L46.16 310.9C42.56 305.38 39.8 298.78 37.88 291.1C35.84 283.3 34.82 275.56 34.82 267.88C34.82 252.04 38.48 239.8 45.8 231.16C53 222.4 64.34 218.02 79.82 218.02L134 218.02L134 249.88ZM135.62 278.68C135.62 286.48 134.3 293.08 131.66 298.48C129.02 303.88 125.42 308.02 120.86 310.9C116.3 313.66 111.2 315.04 105.56 315.04C99.56 315.04 94.4 313.54 90.08 310.54C85.64 307.42 82.28 302.68 80 296.32C77.6 289.96 76.4 281.74 76.4 271.66L76.4 248.62L94.22 248.62L94.22 266.98C94.22 272.5 95.12 276.4 96.92 278.68C98.72 280.84 101.12 281.92 104.12 281.92C107.12 281.92 109.52 280.78 111.32 278.5C113.12 276.22 114.02 273.1 114.02 269.14C114.02 265.42 113.12 262.06 111.32 259.06C109.4 255.94 106.52 253.66 102.68 252.22L115.28 247.54C122 249.34 127.1 252.88 130.58 258.16C133.94 263.32 135.62 270.16 135.62 278.68ZM134 209.033L0.439958 209.033L0.439957 174.833L134 174.833L134 209.033ZM134 165.207L0.439956 165.207L0.439955 131.007L134 131.007L134 165.207ZM135.62 70.2609C135.62 81.781 133.46 91.861 129.14 100.501C124.7 109.021 118.7 115.681 111.14 120.481C103.46 125.161 94.76 127.501 85.04 127.501C75.32 127.501 66.68 125.221 59.12 120.661C51.44 115.981 45.5 109.561 41.3 101.401C36.98 93.241 34.82 84.061 34.82 73.861C34.82 64.261 36.8 55.501 40.76 47.581C44.6 39.661 50.3 33.361 57.86 28.681C65.42 24.001 74.6 21.661 85.4 21.661C86.6 21.661 87.98 21.721 89.54 21.841C91.1 21.961 92.54 22.0809 93.86 22.2009L93.86 99.421L75.86 99.421L75.86 40.381L80.9 53.341C76.46 53.221 72.62 54.061 69.38 55.861C66.14 57.541 63.62 59.941 61.82 63.061C60.02 66.061 59.12 69.601 59.12 73.681C59.12 77.761 60.02 81.361 61.82 84.481C63.62 87.481 66.2 89.821 69.56 91.501C72.8 93.181 76.64 94.021 81.08 94.021L86.3 94.021C91.1 94.021 95.24 93.061 98.72 91.141C102.2 89.101 104.9 86.221 106.82 82.501C108.62 78.781 109.52 74.341 109.52 69.181C109.52 64.381 108.86 60.3009 107.54 56.941C106.1 53.461 103.94 50.041 101.06 46.681L119.78 28.6809C124.94 33.361 128.9 39.121 131.66 45.961C134.3 52.801 135.62 60.901 135.62 70.2609ZM134 18.4926L36.4399 18.4927L36.4399 -14.0873L64.88 -14.0874L56.78 -9.22735C49.46 -12.1073 44 -16.7873 40.3999 -23.2673C36.68 -29.7473 34.82 -37.6073 34.82 -46.8474L65.6 -46.8474C65.36 -45.2874 65.2399 -43.9074 65.2399 -42.7074C65.12 -41.6274 65.06 -40.4274 65.06 -39.1074C65.06 -32.1474 66.98 -26.5074 70.82 -22.1873C74.54 -17.8674 80.66 -15.7074 89.18 -15.7074L134 -15.7074L134 18.4926ZM170.54 -68.0888C170.54 -62.9288 169.7 -57.7088 168.02 -52.4288C166.46 -47.2688 164.36 -43.0688 161.72 -39.8288L137.78 -51.7088C139.58 -53.7488 140.96 -56.0888 141.92 -58.7288C143 -61.4888 143.54 -64.1888 143.54 -66.8288C143.54 -70.5488 142.7 -73.4888 141.02 -75.6488C139.34 -77.8088 136.7 -79.6688 133.1 -81.2288L121.76 -85.7288L118.34 -88.4288L36.4399 -121.549L36.4399 -154.129L137.96 -112.009C146.36 -108.649 152.9 -104.749 157.58 -100.309C162.38 -95.9888 165.74 -91.1288 167.66 -85.7288C169.58 -80.4488 170.54 -74.5688 170.54 -68.0888ZM138.14 -81.4088L36.4399 -38.3888L36.4399 -73.4888L115.28 -105.169L138.14 -81.4088Z" fill="black" fill-opacity="0.04"/>
</svg>
